#!OML:ASF E:/inclinewalkrobotboard/Project1/Captureday1/Session1/subject1.ASF
:FULLY-SPECIFIED
:DEGREES
1
root 0 0 0 1.303386021514152 -3.8478560721470574 1.8278269782106387
lowerback 12.163306840941003 0.8591748662580656 -0.058082574406365994
upperback -4.379450136287187 1.0972156063135055 -0.565971072619513
thorax -11.608137062554807 0.49870633809254583 -0.8191735743332147
lowerneck -6.010175981954371 1.5895862133688323 4.466456115950828
upperneck 18.38156279150357 3.0933298903358546 -8.200751376918513
head 6.741353088662315 1.1315172029510605 -3.145625504144138
rclavicle 1.7711176749713915E-15 -4.091251164537716E-16
rhumerus 21.17151562789705 15.697706919724018 -47.652831371015964
rradius 73.56953601992288
rwrist 26.82059389142399
rhand -34.63321381034095 -57.57423874842514
rfingers 7.125020000000014
rthumb -7.77483015528566 -87.51295091668587
lclavicle -6.082615951187707E-16 -1.0013516152601996E-15
lhumerus 22.082833223922776 -12.524611719075452 43.90375772119381
lradius 71.08308999802195
lwrist -23.53185113905164
lhand -44.61568679711927 -71.05176798895674
lfingers 7.125020000000031
lthumb -17.39374605395617 -41.75939284510736
rfemur -25.19743110757107 -2.223126498727729 17.22216201110396
rtibia 54.19977739736237
rfoot -29.640358115740582 -16.759610960017667
rtoes -18.377605902930767
lfemur -26.4781571749761 2.3095197379859616 -17.63869608590348
ltibia 53.38282827149852
lfoot -32.49670971205923 -2.6763518309130134
ltoes -20.981693258930232
2
root 0 0 0 1.3112397381547511 -3.852470167654573 1.8316165856866262
lowerback 12.168514036480087 0.857788331878033 -0.0591961234959002
upperback -4.385268704258004 1.095248458768889 -0.5678649300293436
thorax -11.617542995997145 0.4976361677693089 -0.8201904242660985
lowerneck -6.009097225776479 1.5936790825362708 4.464868386827792
upperneck 18.387314371495247 3.098843954446555 -8.198959112199244
head 6.7430199593883335 1.1341322173152717 -3.1440194194032998
rclavicle 1.930641780284028E-15 -4.05403854458767E-16
rhumerus 21.24384896447856 15.763061838869804 -47.636501898859905
rradius 73.63837513957665
rwrist 26.824414511015764
rhand -34.65642663233716 -57.65444086462419
rfingers 7.125020000000014
rthumb -7.797407648680272 -87.59847214150818
lclavicle -4.327630985769186E-16 -1.0152837875956258E-15
lhumerus 22.11895481180248 -12.528148322106016 43.8682993460872
lradius 71.11275251858258
lwrist -23.558321416917224
lhand -44.62011569170643 -71.12063013622753
lfingers 7.125020000000031
lthumb -17.399528979703096 -41.82314900449755
rfemur -25.23185816806877 -2.219945520042822 17.2059831947436
rtibia 54.19851068917716
rfoot -29.69547175465172 -16.77006436203646
rtoes -18.413327168226473
lfemur -26.48691353071019 2.296360227095975 -17.630372670530978
ltibia 53.348965055602086
lfoot -32.57617694623545 -2.6291518583623947
ltoes -21.006868354397554
3
root 0 0 0 1.3133427697102986 -3.8534308205483363 1.832438496400549
lowerback 12.169192198417383 0.8576755122795887 -0.05967508074390504
upperback -4.386026896994219 1.0950267428873062 -0.5682962456752229
thorax -11.618759508150838 0.4975285902966922 -0.8203267984501792
lowerneck -6.010088190513701 1.5941550919466498 4.464088640803857
upperneck 18.388409613462773 3.0994135126902638 -8.19770101579045
head 6.743562392269798 1.1344437362991306 -3.143407992890743
rclavicle 1.930904301794995E-15 -4.035107609465373E-16
rhumerus 21.252042148801998 15.770612429559568 -47.63736239040803
rradius 73.64583814208643
rwrist 26.82317472098584
rhand -34.65980841546822 -57.66265719245775
rfingers 7.125020000000014
rthumb -7.800719789210332 -87.60677782170526
lclavicle -4.392153030438996E-16 -1.019335759286487E-15
lhumerus 22.124199810766385 -12.529421404292751 43.86460145390774
lradius 71.11740534189846
lwrist -23.560362515040225
lhand -44.62150475911341 -71.13156024873571
lfingers 7.125020000000031
lthumb -17.401008333322764 -41.83365179905216
rfemur -25.23297919609385 -2.218245464944607 17.2023927272498
rtibia 54.19540623841276
rfoot -29.700221424293794 -16.76951159721805
rtoes -18.425173674063736
lfemur -26.488658505156586 2.2923560028720704 -17.628212403789536
ltibia 53.33502176872584
lfoot -32.59591503493821 -2.6161763217762273
ltoes -21.015075255508002
4
root 0 0 0 1.313790791800666 -3.853474643316946 1.8325702155829569
lowerback 12.169256635457906 0.8576590224933456 -0.05980339826687775
upperback -4.386143839794244 1.094985825360904 -0.5683802473286629
thorax -11.618921827036772 0.4975115433793316 -0.8203384724622369
lowerneck -6.010436007348143 1.5942419365271052 4.463925960901673
upperneck 18.388694710143323 3.099508948518789 -8.197390578412609
head 6.743718586869645 1.1344983247790053 -3.1432721977687867
rclavicle 1.931899708206788E-15 -4.029025408354037E-16
rhumerus 21.253245438061953 15.771736855638474 -47.63766046552689
rradius 73.64694182346172
rwrist 26.82278108012212
rhand -34.660559941769336 -57.66381225178653
rfingers 7.125020000000014
rthumb -7.801449610369161 -87.60795337732925
lclavicle -4.377318140424111E-16 -1.0192175589080332E-15
lhumerus 22.12461624309403 -12.529473570630529 43.864145879523164
lradius 71.11787269940314
lwrist -23.56058329297222
lhand -44.62164749008639 -71.13289365825612
lfingers 7.125020000000031
lthumb -17.401161285007955 -41.83494266551419
rfemur -25.232127398004447 -2.217860354656339 17.20132070145041
rtibia 54.195253672595996
rfoot -29.700033878464332 -16.768463647100962
rtoes -18.43015433339682
lfemur -26.48840389046162 2.29111982792149 -17.627364371728714
ltibia 53.33076400106605
lfoot -32.5997472797931 -2.6137328127426285
ltoes -21.019043145322623
